<?xml version="1.0" encoding="UTF-8"?>
<svg id="Layer_1" data-name="Layer 1" xmlns="http://www.w3.org/2000/svg" viewBox="0 0 642.73 110.7">
  <defs>
    <style>
      .cls-1 {
        fill: #232326;
      }
    </style>
  </defs>
  <path class="cls-1" d="M635.8,0H29.13c-1.92,0-3.7.76-4.99,2.12-.09.08-.18.17-.22.22-.07.07-.14.13-.21.21l-.04.04c-.07.07-.14.14-.18.18-.09.08-.18.17-.23.22-.08.08-.16.16-.24.24-.08.08-.16.16-.2.2-.08.08-.17.17-.21.22-.09.08-.18.17-.22.22-.07.06-.13.12-.17.16h-.05l-.27.32-.21.21c-.07.07-.14.14-.18.19-.09.08-.17.16-.22.21-.09.09-.17.17-.21.22-.07.06-.13.12-.17.16h-.05l-.27.32c-.07.07-.13.13-.17.18-.09.08-.18.17-.22.22-.09.08-.18.17-.22.21-.09.09-.17.17-.21.22-.09.08-.17.16-.24.24-.08.07-.16.15-.2.19-.09.09-.17.17-.22.22-.08.08-.16.16-.24.24-.08.07-.16.15-.2.2-.09.08-.17.16-.22.21-.09.09-.17.17-.22.22-.08.08-.17.17-.21.22-.09.08-.18.17-.22.21-.09.09-.17.17-.21.22-.09.08-.18.17-.22.22-.07.07-.14.13-.23.22-.08.08-.16.16-.23.23-.05.05-.11.11-.15.16h-.05l-.27.31c-.07.07-.14.14-.18.18-.09.09-.17.17-.22.22-.09.09-.17.17-.21.22-.09.08-.18.17-.22.21-.08.08-.16.16-.24.24-.07.07-.15.16-.19.2-.09.08-.18.17-.22.22-.09.08-.18.16-.22.21-.09.09-.17.17-.21.22-.09.08-.18.17-.22.22-.08.07-.16.16-.24.24-.08.07-.16.16-.2.2-.09.08-.18.17-.22.22-.09.08-.17.16-.24.24-.06.05-.11.1-.16.15h-.05l-.26.32c-.07.07-.14.13-.19.19-.08.07-.16.16-.21.21-.07.06-.13.13-.22.21-.09.09-.17.17-.21.22-.09.08-.17.16-.22.22-.09.08-.17.16-.22.21-.09.09-.17.17-.21.22-.09.08-.17.16-.22.22-.09.08-.18.17-.22.21-.08.08-.17.17-.21.22-.09.08-.18.17-.22.22-.09.08-.18.16-.22.21l-.22.22c-.08.08-.16.16-.24.24-.08.08-.16.16-.2.2-.09.09-.17.17-.21.22-.09.08-.18.17-.24.24-.05.05-.1.11-.15.15h-.05l-.27.32c-.07.07-.13.13-.17.18-.09.08-.18.17-.22.22-.09.08-.18.17-.22.21l-.22.22c-.06.06-.12.12-.16.16h-.05l-.27.32c-.07.07-.13.14-.18.18-.08.08-.17.17-.21.22-.09.08-.18.17-.22.22-.09.08-.17.16-.22.21-.08.08-.16.16-.24.24-.08.08-.16.16-.2.2-.09.09-.17.17-.22.23-.08.07-.16.16-.24.24-.08.07-.16.16-.2.2-.09.08-.18.17-.22.22-.09.08-.17.16-.22.21-.09.09-.17.17-.21.22-.09.08-.18.17-.22.22-.08.07-.16.16-.24.24-.05.05-.1.1-.15.15h-.05l-.26.32c-.07.07-.14.13-.18.17-.06.06-.12.12-.17.17h-.05l-.26.32c-.07.07-.14.13-.18.18-.09.08-.17.16-.21.21-.09.08-.18.17-.22.22-.09.08-.18.17-.22.22-.08.07-.16.16-.24.24-.3.29-.58.61-.82.95l-.1.14c-.11.16-.22.33-.33.52-.1.18-.2.38-.27.55l-.04.07c-.08.18-.15.37-.21.55l-.04.1c-.05.18-.1.36-.15.56l-.03.12c-.04.19-.07.38-.1.58v.13c-.04.24-.05.48-.05.73v74.65c0,2.54,1.39,4.88,3.63,6.09.39.21.81.39,1.24.53.44.14.9.23,1.35.28.23.02.47.03.71.03h606.67c.24,0,.49,0,.72-.04.05,0,.1,0,.17-.02.18-.02.36-.05.54-.09.04,0,.09-.01.15-.04.18-.04.36-.09.54-.14l.1-.04c.18-.07.37-.13.61-.24.19-.08.38-.18.58-.3.59-.34,1.13-.76,1.57-1.22.09-.08.18-.17.22-.22.09-.08.17-.17.22-.22.08-.08.17-.16.21-.21.09-.09.18-.17.22-.22.09-.08.17-.17.22-.22.09-.08.17-.16.22-.21.08-.09.17-.17.21-.22.09-.08.18-.17.22-.22.09-.08.17-.16.21-.21.09-.08.16-.16.24-.24.08-.07.16-.16.2-.2.09-.08.17-.16.24-.24.08-.07.16-.16.2-.2.09-.09.18-.17.22-.22.07-.07.15-.14.22-.21l.08-.09c.06-.05.1-.1.14-.13.08-.09.17-.17.21-.22.09-.08.18-.17.22-.22.09-.08.17-.17.22-.22.08-.08.17-.16.21-.21.09-.09.18-.17.22-.22.09-.08.17-.17.22-.21.08-.09.17-.17.21-.22.09-.09.18-.17.22-.22.09-.08.17-.17.22-.22.08-.07.16-.16.24-.24.08-.07.16-.16.2-.2.09-.08.18-.17.22-.22.09-.08.17-.17.21-.21.09-.09.18-.17.22-.22.09-.08.18-.17.22-.22.09-.08.17-.17.22-.22.09-.08.17-.17.21-.21.07-.07.15-.15.22-.22l.08-.08c.06-.05.11-.1.16-.15.08-.08.16-.16.21-.21.08-.08.17-.16.23-.23.09-.08.16-.16.21-.21.09-.08.17-.17.22-.22.09-.08.17-.16.21-.21.09-.09.18-.17.22-.22.09-.08.17-.17.22-.22.09-.08.17-.16.21-.21.09-.09.18-.17.22-.22.09-.08.18-.17.22-.22.09-.08.17-.16.21-.21.09-.09.18-.17.22-.22.09-.08.17-.17.22-.22.09-.08.17-.17.22-.21.08-.09.17-.17.21-.22.09-.09.18-.17.22-.22.09-.08.18-.17.22-.22.09-.08.17-.16.24-.23.07-.07.13-.14.2-.21l.07-.06c.06-.07.12-.13.16-.16.09-.08.17-.17.22-.22.08-.08.17-.16.21-.21.09-.09.18-.17.22-.22.07-.07.14-.14.23-.23.08-.08.16-.16.21-.21.08-.09.17-.17.21-.22.09-.08.18-.17.22-.22.09-.08.17-.16.21-.21.09-.08.16-.16.24-.24.08-.07.16-.15.2-.2.09-.08.17-.17.21-.21.09-.09.18-.17.22-.22.09-.08.18-.17.22-.22.09-.08.17-.17.22-.21.08-.09.17-.17.23-.24.09-.08.16-.16.21-.21.09-.08.17-.17.22-.22.09-.08.17-.17.21-.21.09-.09.18-.17.22-.22.09-.08.17-.17.22-.22.09-.08.17-.17.22-.22.09-.08.17-.16.21-.21.09-.08.18-.17.24-.24.08-.08.16-.16.21-.21.09-.08.17-.16.22-.21.08-.09.17-.17.21-.22.09-.08.18-.17.22-.22.09-.08.17-.17.22-.22.09-.08.17-.16.21-.21.09-.08.18-.17.22-.22.09-.08.18-.17.21-.21.09-.09.18-.17.22-.22.09-.08.18-.17.22-.22.09-.08.18-.17.22-.22.09-.08.17-.16.21-.21.09-.09.18-.17.22-.22.09-.09.18-.17.22-.22.09-.08.17-.16.21-.21.07-.07.14-.14.23-.23.08-.07.16-.16.24-.23.07-.08.16-.16.2-.21.07-.07.14-.13.22-.22.09-.08.17-.16.21-.21.09-.08.17-.17.22-.22.09-.08.17-.17.22-.22,1.39-1.32,2.16-3.11,2.16-5.02V6.93c0-3.82-3.11-6.93-6.93-6.93ZM641.73,81.58c0,3.27-2.66,5.93-5.93,5.93H29.13c-3.28,0-5.93-2.66-5.93-5.93V6.93c0-3.27,2.66-5.93,5.93-5.93h606.67c3.28,0,5.93,2.66,5.93,5.93v74.65Z"/>
  <path class="cls-1" d="M87.74,36.65c-9.21,0-16.48,1.89-20.96,6.7v-8.38c0-5.34,2.38-7.52,7.19-7.52,4.36,0,6.78,1.89,6.78,5.51v1.81h30.7v-.41c0-12.78-12.17-21.58-37.48-21.58s-37.89,9.29-37.89,28.85v5.26c0,20.26,11.67,28.85,37.73,28.85s37.77-7.97,37.77-20.72v-1.52c0-10.97-7.81-16.85-23.84-16.85ZM80.87,55.97c0,2.92-1.32,5.26-6.66,5.26-4.97,0-7.44-1.85-7.44-7.52v-2.84c2.14-1.32,4.48-1.89,7.07-1.89,4.85,0,7.03,2.01,7.03,5.38v1.6Z"/>
  <rect class="cls-1" x="118.84" y="14.25" width="33.46" height="60.01"/>
  <polygon class="cls-1" points="215.22 14.25 203.75 34.55 203.46 34.55 192 14.25 157.23 14.25 179.38 44 157.23 74.25 192.12 74.25 203.46 54.12 203.75 54.12 215.01 74.25 249.99 74.25 227.8 44 249.99 14.25 215.22 14.25"/>
  <polygon class="cls-1" points="271.64 34.67 288.32 34.67 288.32 74.25 321.78 74.25 321.78 34.67 338.43 34.67 338.43 14.25 271.64 14.25 271.64 34.67"/>
  <path class="cls-1" d="M384.58,12.77c-26.59,0-42.5,8.71-42.5,30.7v1.56c0,21.99,15.91,30.7,42.5,30.7s42.54-8.71,42.54-30.7v-1.56c0-21.99-15.91-30.7-42.54-30.7ZM393,50.75c0,5.38-3.12,7.85-8.43,7.85s-8.38-2.47-8.38-7.85v-12.99c0-5.38,3.12-7.85,8.38-7.85s8.43,2.47,8.43,7.85v12.99Z"/>
  <path class="cls-1" d="M494.51,52.31h8.75v5.26c-2.18.99-5.14,1.56-8.3,1.56-5.43,0-8.55-2.3-8.55-7.6v-13.81c0-5.3,3.21-7.69,8.38-7.69s8.18,1.69,8.26,6.04l.04,2.59h33.99v-.9c-.25-17.18-16.03-24.99-42.29-24.99s-42.42,8.59-42.42,30.09v2.79c0,18.74,10.85,30.09,36.91,30.09,12.62,0,23.39-3.33,29.1-10.15l3.7,8.67h15.08v-31.61h-42.66v9.66Z"/>
  <path class="cls-1" d="M586.32,12.77c-26.59,0-42.5,8.71-42.5,30.7v1.56c0,21.99,15.91,30.7,42.5,30.7s42.54-8.71,42.54-30.7v-1.56c0-21.99-15.91-30.7-42.54-30.7ZM594.75,50.75c0,5.38-3.12,7.85-8.43,7.85s-8.38-2.47-8.38-7.85v-12.99c0-5.38,3.12-7.85,8.38-7.85s8.43,2.47,8.43,7.85v12.99Z"/>
</svg>